<svg width="18" height="21" viewBox="0 0 18 21" fill="none" xmlns="http://www.w3.org/2000/svg">
<path d="M17.8393 5.28912C17.7565 5.14892 17.646 5.03433 17.5172 4.95516C17.3883 4.87599 17.245 4.8346 17.0995 4.83454H4.79957L3.761 1.91301C3.62482 1.52828 3.39423 1.1996 3.09846 0.968643C2.80269 0.737686 2.45506 0.614857 2.09964 0.615727H0V2.72514H2.09964L6.36913 14.7329C6.43752 14.9251 6.55289 15.0892 6.7007 15.2046C6.84852 15.32 7.02218 15.3816 7.19981 15.3816H14.3996C14.7749 15.3816 15.1106 15.1084 15.2429 14.6981L17.9428 6.2605C17.9939 6.10084 18.0111 5.92907 17.9931 5.75989C17.975 5.59071 17.9223 5.42917 17.8393 5.28912ZM13.7759 13.2722H7.80009L5.55015 6.94395H15.8009L13.7759 13.2722Z" fill="white"/>
<path d="M7.64928 20.6551C8.39485 20.6551 8.99924 19.9468 8.99924 19.073C8.99924 18.1993 8.39485 17.491 7.64928 17.491C6.90372 17.491 6.29932 18.1993 6.29932 19.073C6.29932 19.9468 6.90372 20.6551 7.64928 20.6551Z" fill="white"/>
<path d="M13.9491 20.6551C14.6946 20.6551 15.299 19.9468 15.299 19.073C15.299 18.1993 14.6946 17.491 13.9491 17.491C13.2035 17.491 12.5991 18.1993 12.5991 19.073C12.5991 19.9468 13.2035 20.6551 13.9491 20.6551Z" fill="white"/>
</svg>
