<svg width="138" height="39" viewBox="0 0 138 39" fill="none" xmlns="http://www.w3.org/2000/svg">
<mask id="mask0_119_10" style="mask-type:alpha" maskUnits="userSpaceOnUse" x="1" y="1" width="37" height="37">
<path d="M8.9375 30.0625V20.3125M30.0625 20.3125V30.0625V20.3125ZM8.9375 30.0625V35.75H30.0625V30.0625H8.9375ZM8.9375 30.0625H3.25V14.625L8.22656 10.5625L13.8125 14.625L19.5 8.125L25.1875 14.625L30.7734 10.5625L35.75 14.625V30.0625H30.0625H8.9375Z" stroke="white" stroke-width="4" stroke-linecap="round" stroke-linejoin="round"/>
<path d="M13.8125 14.625L19.5 8.125L25.1875 14.625L34.125 8.125L32.0938 3.25H7.3125L4.875 8.125L13.8125 14.625Z" fill="white"/>
<path d="M15.4375 8.125H19.5H15.4375ZM23.5625 8.125H19.5H23.5625ZM19.5 8.125L13.8125 14.625L4.875 8.125L7.3125 3.25H32.0938L34.125 8.125L25.1875 14.625L19.5 8.125Z" stroke="white" stroke-width="4" stroke-linecap="round" stroke-linejoin="round"/>
</mask>
<g mask="url(#mask0_119_10)">
<path d="M0 0H39V39H0V0Z" fill="white"/>
</g>
<path d="M58.6367 13.8496C60.6021 13.8496 62.1743 14.3737 63.3535 15.4219C63.8364 15.8486 64.1808 16.2791 64.3867 16.7134C64.5964 17.1439 64.7012 17.6867 64.7012 18.3418C64.7012 18.8397 64.5252 19.2646 64.1733 19.6165C63.8252 19.9646 63.4022 20.1387 62.9043 20.1387C62.4064 20.1387 61.9815 19.9646 61.6296 19.6165C61.2815 19.2646 61.1074 18.8397 61.1074 18.3418C61.1074 18.0872 61.158 17.8477 61.259 17.623C61.3601 17.3947 61.5005 17.1963 61.6802 17.0278C61.4106 16.5262 61.0457 16.1706 60.5852 15.9609C60.1285 15.7513 59.5539 15.6465 58.8613 15.6465C58.4084 15.6465 57.9872 15.7382 57.5979 15.9216C57.2123 16.1051 56.8773 16.3615 56.5928 16.6909C56.312 17.0203 56.0706 17.4097 55.8684 17.8589C55.6663 18.3081 55.5146 18.8022 55.4136 19.3413C55.3162 19.8766 55.2676 20.4419 55.2676 21.0371C55.2676 21.6248 55.3275 22.1901 55.4473 22.7329C55.5671 23.2757 55.7411 23.7699 55.9695 24.2153C56.1978 24.6608 56.4655 25.0501 56.7725 25.3833C57.0794 25.7127 57.4313 25.9692 57.8281 26.1526C58.2287 26.336 58.6479 26.4277 59.0859 26.4277C59.7223 26.4277 60.3138 26.2574 60.8604 25.9167C61.4106 25.5761 61.8655 25.0988 62.2249 24.4849C62.588 23.8672 62.8145 23.1672 62.9043 22.3848L64.7012 22.834C64.6113 23.272 64.5065 23.68 64.3867 24.0581C64.2669 24.4325 64.1172 24.8068 63.9375 25.1812C63.7578 25.5518 63.5538 25.8868 63.3254 26.1863C63.0971 26.4858 62.8276 26.7646 62.5168 27.0229C62.2061 27.2812 61.8636 27.4984 61.4893 27.6743C61.1149 27.8465 60.6863 27.9813 60.2034 28.0786C59.7205 28.1759 59.1982 28.2246 58.6367 28.2246C57.9666 28.2246 57.3265 28.1535 56.7163 28.0112C56.1099 27.8727 55.5596 27.6781 55.0654 27.4272C54.575 27.1764 54.1221 26.877 53.7065 26.5288C53.291 26.1807 52.9316 25.797 52.6284 25.3777C52.3252 24.9547 52.0669 24.5073 51.8535 24.0356C51.6439 23.5602 51.4867 23.0717 51.3818 22.5701C51.277 22.0647 51.2246 21.5537 51.2246 21.0371C51.2246 20.5205 51.277 20.0114 51.3818 19.5098C51.4867 19.0044 51.6439 18.5159 51.8535 18.0442C52.0669 17.5688 52.3252 17.1214 52.6284 16.7021C52.9316 16.2791 53.291 15.8936 53.7065 15.5454C54.1221 15.1973 54.575 14.8978 55.0654 14.647C55.5596 14.3962 56.1099 14.2015 56.7163 14.063C57.3265 13.9207 57.9666 13.8496 58.6367 13.8496ZM65.8242 14.0742H73.4609V15.8711H71.2148V26.2031H74.8086C74.9658 26.2031 75.1062 26.1432 75.2297 26.0234C75.3533 25.8999 75.4469 25.7427 75.5105 25.5518C75.5779 25.3608 75.6265 25.1681 75.6565 24.9734C75.6902 24.7787 75.707 24.5897 75.707 24.4062V22.6094H77.7285V28H65.8242V26.2031H67.6211V15.8711H65.8242V14.0742ZM84.3433 14.063C84.9535 13.9207 85.5936 13.8496 86.2637 13.8496C86.9338 13.8496 87.572 13.9207 88.1785 14.063C88.7887 14.2015 89.3389 14.3962 89.8293 14.647C90.3235 14.8978 90.7783 15.1973 91.1938 15.5454C91.6094 15.8936 91.9688 16.2791 92.272 16.7021C92.5752 17.1214 92.8316 17.5688 93.0413 18.0442C93.2546 18.5159 93.4137 19.0044 93.5186 19.5098C93.6234 20.0114 93.6758 20.5205 93.6758 21.0371C93.6758 21.5537 93.6234 22.0647 93.5186 22.5701C93.4137 23.0717 93.2546 23.5602 93.0413 24.0356C92.8316 24.5073 92.5752 24.9547 92.272 25.3777C91.9688 25.797 91.6094 26.1807 91.1938 26.5288C90.7783 26.877 90.3235 27.1764 89.8293 27.4272C89.3389 27.6781 88.7887 27.8727 88.1785 28.0112C87.572 28.1535 86.9338 28.2246 86.2637 28.2246C85.5936 28.2246 84.9535 28.1535 84.3433 28.0112C83.7368 27.8727 83.1865 27.6781 82.6924 27.4272C82.202 27.1764 81.749 26.877 81.3335 26.5288C80.918 26.1807 80.5586 25.797 80.2554 25.3777C79.9521 24.9547 79.6938 24.5073 79.4805 24.0356C79.2708 23.5602 79.1136 23.0717 79.0088 22.5701C78.904 22.0647 78.8516 21.5537 78.8516 21.0371C78.8516 20.5205 78.904 20.0114 79.0088 19.5098C79.1136 19.0044 79.2708 18.5159 79.4805 18.0442C79.6938 17.5688 79.9521 17.1214 80.2554 16.7021C80.5586 16.2791 80.918 15.8936 81.3335 15.5454C81.749 15.1973 82.202 14.8978 82.6924 14.647C83.1865 14.3962 83.7368 14.2015 84.3433 14.063ZM87.499 15.9272C87.1284 15.7401 86.7166 15.6465 86.2637 15.6465C85.8107 15.6465 85.3971 15.7401 85.0227 15.9272C84.6521 16.1107 84.3358 16.3652 84.0737 16.6909C83.8154 17.0166 83.5964 17.4078 83.4167 17.8645C83.2371 18.3175 83.1042 18.8097 83.0181 19.3413C82.9357 19.8729 82.8945 20.4382 82.8945 21.0371C82.8945 21.7858 82.9657 22.484 83.1079 23.1316C83.2539 23.7755 83.4635 24.3445 83.7368 24.8386C84.0101 25.3328 84.362 25.7221 84.7925 26.0066C85.2267 26.2874 85.7171 26.4277 86.2637 26.4277C86.8102 26.4277 87.2987 26.2874 87.7292 26.0066C88.1635 25.7221 88.5173 25.3328 88.7905 24.8386C89.0638 24.3445 89.2716 23.7755 89.4138 23.1316C89.5598 22.484 89.6328 21.7858 89.6328 21.0371C89.6328 20.4382 89.5898 19.8729 89.5037 19.3413C89.4213 18.8097 89.2903 18.3175 89.1106 17.8645C88.9309 17.4078 88.71 17.0166 88.448 16.6909C88.1897 16.3652 87.8734 16.1107 87.499 15.9272ZM94.4619 14.0742H107.489V18.5664H105.468V17.668C105.468 17.4845 105.451 17.2955 105.417 17.1008C105.387 16.9062 105.339 16.7134 105.271 16.5225C105.208 16.3315 105.114 16.1762 104.99 16.0564C104.867 15.9329 104.727 15.8711 104.569 15.8711H102.772V26.2031H104.569V28H97.3818V26.2031H99.1787V15.8711H97.3818C97.2246 15.8711 97.0842 15.9329 96.9607 16.0564C96.8372 16.1762 96.7417 16.3315 96.6743 16.5225C96.6107 16.7134 96.562 16.9062 96.5283 17.1008C96.4984 17.2955 96.4834 17.4845 96.4834 17.668V18.5664H94.4619V14.0742ZM117.26 14.0742H124.447V15.8711H122.65V26.2031H124.447V28H117.26V26.2031H119.057V22.6094H114.115V26.2031H115.912V28H108.725V26.2031H110.521V15.8711H108.725V14.0742H115.912V15.8711H114.115V20.8125H119.057V15.8711H117.26V14.0742ZM129.389 17.2188C129.389 17.5744 129.471 17.8944 129.636 18.179C129.8 18.4597 130.021 18.6956 130.298 18.8865C130.575 19.0774 130.894 19.2533 131.253 19.4143C131.612 19.5753 131.99 19.7288 132.387 19.8748C132.784 20.017 133.181 20.1667 133.578 20.324C133.974 20.4775 134.353 20.6628 134.712 20.8799C135.071 21.0933 135.389 21.3347 135.667 21.6042C135.944 21.87 136.164 22.2051 136.329 22.6094C136.494 23.0099 136.576 23.4591 136.576 23.957C136.576 24.5672 136.441 25.1362 136.172 25.6641C135.902 26.1919 135.532 26.6449 135.06 27.0229C134.592 27.3973 134.023 27.6912 133.353 27.9045C132.683 28.1179 131.96 28.2246 131.186 28.2246C130.886 28.2246 130.57 28.204 130.237 28.1628C129.907 28.1254 129.557 28.0599 129.187 27.9663C128.82 27.8727 128.466 27.7585 128.125 27.6238C127.785 27.489 127.457 27.3187 127.143 27.1128C126.832 26.9032 126.56 26.6711 126.328 26.4165C126.096 26.1619 125.911 25.8625 125.772 25.5181C125.638 25.1699 125.57 24.7993 125.57 24.4062C125.57 23.9084 125.744 23.4854 126.093 23.1372C126.444 22.7853 126.869 22.6094 127.367 22.6094C127.865 22.6094 128.288 22.7853 128.636 23.1372C128.988 23.4854 129.164 23.9084 129.164 24.4062C129.164 24.7282 129.085 25.0258 128.928 25.2991C128.775 25.5686 128.565 25.7839 128.299 25.9448C128.861 26.2668 129.598 26.4277 130.512 26.4277C131.324 26.4277 131.938 26.3023 132.354 26.0515C132.773 25.8007 132.982 25.402 132.982 24.8555C132.982 24.4998 132.9 24.1816 132.735 23.9009C132.571 23.6164 132.35 23.3787 132.073 23.1877C131.796 22.9968 131.478 22.8209 131.118 22.6599C130.759 22.4989 130.381 22.3473 129.984 22.2051C129.587 22.0591 129.19 21.9093 128.793 21.7559C128.397 21.5986 128.019 21.4133 127.659 21.2C127.3 20.9828 126.982 20.7414 126.705 20.4756C126.428 20.2061 126.207 19.871 126.042 19.4705C125.877 19.0662 125.795 18.6151 125.795 18.1172C125.795 17.5033 125.917 16.9342 126.16 16.4102C126.407 15.8823 126.751 15.4312 127.193 15.0569C127.639 14.6788 128.185 14.3831 128.833 14.1697C129.48 13.9563 130.19 13.8496 130.961 13.8496C131.26 13.8496 131.571 13.8702 131.893 13.9114C132.219 13.9488 132.558 14.0143 132.909 14.1079C133.265 14.2015 133.606 14.3157 133.931 14.4504C134.257 14.5852 134.568 14.7574 134.864 14.967C135.163 15.1729 135.421 15.4032 135.638 15.6577C135.856 15.9123 136.028 16.2118 136.155 16.5562C136.286 16.9006 136.352 17.2712 136.352 17.668C136.352 18.1659 136.176 18.5907 135.824 18.9426C135.476 19.2908 135.053 19.4648 134.555 19.4648C134.057 19.4648 133.632 19.2908 133.28 18.9426C132.932 18.5907 132.758 18.1659 132.758 17.668C132.758 17.3348 132.842 17.0297 133.01 16.7527C133.179 16.4719 133.402 16.2529 133.679 16.0957C133.181 15.7962 132.5 15.6465 131.635 15.6465C130.845 15.6465 130.272 15.77 129.917 16.0171C129.565 16.2604 129.389 16.661 129.389 17.2188Z" fill="white"/>
</svg>
