<svg width="15" height="17" viewBox="0 0 15 17" fill="none" xmlns="http://www.w3.org/2000/svg">
<path d="M6.41471 14.4761C7.83796 14.4758 9.22019 13.9626 10.3413 13.0182L13.8662 16.8151L15 15.5938L11.4751 11.7969C12.3523 10.5891 12.8291 9.09992 12.8294 7.56645C12.8294 3.75663 9.95162 0.656769 6.41471 0.656769C2.8778 0.656769 0 3.75663 0 7.56645C0 11.3763 2.8778 14.4761 6.41471 14.4761ZM6.41471 2.38419C9.068 2.38419 11.2257 4.70843 11.2257 7.56645C11.2257 10.4245 9.068 12.7487 6.41471 12.7487C3.76143 12.7487 1.60368 10.4245 1.60368 7.56645C1.60368 4.70843 3.76143 2.38419 6.41471 2.38419Z" fill="white"/>
</svg>
