<svg width="14" height="20" viewBox="0 0 14 20" fill="none" xmlns="http://www.w3.org/2000/svg">
<path d="M10.4286 5.32955C10.4286 6.30908 10.0673 7.2485 9.42437 7.94113C8.78138 8.63376 7.90931 9.02288 7 9.02288C6.09069 9.02288 5.21862 8.63376 4.57563 7.94113C3.93265 7.2485 3.57143 6.30908 3.57143 5.32955C3.57143 4.35002 3.93265 3.41061 4.57563 2.71798C5.21862 2.02535 6.09069 1.63623 7 1.63623C7.90931 1.63623 8.78138 2.02535 9.42437 2.71798C10.0673 3.41061 10.4286 4.35002 10.4286 5.32955ZM7 11.7929C5.4087 11.7929 3.88258 12.4738 2.75736 13.6859C1.63214 14.898 1 16.542 1 18.2562H13C13 16.542 12.3679 14.898 11.2426 13.6859C10.1174 12.4738 8.5913 11.7929 7 11.7929Z" fill="white" stroke="white" stroke-width="2" stroke-linecap="round" stroke-linejoin="round"/>
</svg>
